<?xml version="1.0" encoding="utf-8"?>
<!-- Generator: Adobe Illustrator 21.1.0, SVG Export Plug-In . SVG Version: 6.00 Build 0)  -->
<svg version="1.1" id="Layer_1" opacity="0.8" xmlns="http://www.w3.org/2000/svg" xmlns:xlink="http://www.w3.org/1999/xlink"
	 x="0px" y="0px" viewBox="0 0 100 125" style="enable-background:new 0 0 100 125;" xml:space="preserve">
<style type="text/css">
	.st0{fill:url(#SVGID_1_);stroke:url(#SVGID_2_);stroke-miterlimit:10;}
	.st1{fill:none;stroke:#3ECCED;stroke-linecap:round;stroke-linejoin:round;}
</style>
<g transform="matrix( 1, 0, 0, 1, 0,0) ">
	<g>
		<g id="b">
			<linearGradient id="SVGID_1_" gradientUnits="userSpaceOnUse" x1="8.8" y1="50.7" x2="92.8" y2="50.7">
				<stop  offset="0" style="stop-color:#3FFFCC"/>
				<stop  offset="1" style="stop-color:#158CFF"/>
			</linearGradient>
			<linearGradient id="SVGID_2_" gradientUnits="userSpaceOnUse" x1="8.3" y1="50.7" x2="93.3" y2="50.7">
				<stop  offset="0" style="stop-color:#FFFFFF"/>
				<stop  offset="1" style="stop-color:#000000"/>
			</linearGradient>
			<path class="st0" d="M80.5,21C72.3,12.8,62.4,8.7,50.8,8.7S29.3,12.8,21.1,21S8.8,39.1,8.8,50.7s4.1,21.5,12.3,29.7
				s18.1,12.3,29.7,12.3s21.5-4.1,29.7-12.3s12.3-18.1,12.3-29.7S88.7,29.2,80.5,21 M42,36.1c1.3-3.1,3.3-5.9,6.1-8.5
				c5.6-5.1,12.2-6.3,19.8-3.6l2.5,1.1c2,1.1,3.6,2.4,5,4c1.1,1.3,2,2.6,2.7,3.9c2.2,4.6,2.5,10.3,0.8,17c-0.6,2.4-1.8,4.7-3.7,6.7
				c-3.8,4.2-9.2,6-16.2,5.5l-0.8-0.1c-0.4,0.9-1.2,1.8-2.3,2.7c-2.3,1.8-5.3,2.8-9.1,2.8c-2.6,0.7-4.7,1.5-6.5,2.5l-9.5,6
				c-0.3,0.2-0.7,0.3-1.2,0.3c-0.9,0.1-1.7-0.3-2.3-1c-2-2-2.9-3.3-2.6-4c-0.4,0.1-0.8,0.1-1.1,0c-0.7-0.3-0.9-1.3-0.5-2.8
				c5.8-10.4,9.4-17.1,10.7-20.2c0.5-2.9,1.2-4.8,2.1-5.9c2.8-1.9,4.6-3.8,5.6-5.6L42,36.1z"/>
		</g>
	</g>
	<g>
		<path id="a" class="st1" d="M41.6,37l3.6-0.9l-1.9,3l4-0.1l-1.9,3.1l2.2-0.3l0.4,2.1c0.2-0.9,0.6-2,1.1-3.1c1.1-2.4,2.5-4.4,4.2-6
			c2.1-1.9,4.5-2.9,7.2-3.2l2.1,0.5c1.6,0.5,3.1,1.1,4.3,2c4.3,2.9,5.5,7.4,3.7,13.2c-1.2,1.3-2.1,2.2-2.7,2.7c-1,0.8-2,1.3-3,1.3
			c-2.3,0.2-4-0.1-5-0.9c-1.1-0.9-1.9-2.6-2.5-5.3c0-0.7,0-1.1,0-1.3l0.5-1.3c0.3-0.4,0.6-0.8,0.9-1.2c-2.1-0.9-3.6-2.2-4.6-4
			l-0.8-2.5 M59.8,23.5l-0.3,2.2c-0.1,1.8,0.2,3.5,0.9,5.1 M23.1,68.8c5.8-10.4,9.4-17.1,10.7-20.2c0.5-2.9,1.2-4.8,2.1-5.9
			c2.8-1.9,4.6-3.8,5.6-5.6l0.4-0.9c1.3-3.1,3.3-5.9,6.1-8.5c5.6-5.1,12.2-6.3,19.8-3.6l2.5,1.1c2,1.1,3.6,2.4,5,4
			c1.1,1.3,2,2.6,2.7,3.9c2.2,4.6,2.5,10.3,0.8,17c-0.6,2.4-1.8,4.7-3.7,6.7c-3.8,4.2-9.2,6-16.2,5.5l-0.8-0.1
			c-0.4,0.9-1.2,1.8-2.3,2.7c-2.3,1.8-5.3,2.8-9.1,2.8c-2.6,0.7-4.7,1.5-6.5,2.5l-9.5,6c-0.3,0.2-0.7,0.3-1.2,0.3
			c-0.9,0.1-1.7-0.3-2.3-1c-2-2-2.9-3.3-2.6-4c-0.4,0.1-0.8,0.1-1.1,0C22.9,71.2,22.7,70.3,23.1,68.8z M46.6,29.9l0.5,2.4
			c0.7,1.8,2.1,3.1,4.2,4 M46.7,51.2c0.7,0.2,1.5,0,2.4-0.7c1.8-1.3,3.1-4,4-8.2l-5,1.5L45.7,46 M58.8,41.2c0.6-0.7,1.3-1.2,2.1-1.4
			l-0.2,2.5v0.1c1.9-0.7,2.8-0.4,2.8,0.7c0,0.5-0.1,0.9-0.4,1.4c1.5,0.4,2.6,1.5,3.2,3c0.3,0.8,0.5,1.6,0.6,2.3 M60.8,44.2
			c-0.5,0.4-0.9,0.7-1.4,0.9c-1,0.5-1.7,0.4-2-0.1 M78.1,33c-1.2,0.3-2.4,0.7-3.5,1.2c-2.3,1-3.6,2.1-3.7,3.2 M66.9,34
			c-0.9,0.8-1.8,1.7-2.8,2.7c-1.8,2-2.6,3.5-2.5,4.6 M62,43.3c0-0.2,0-0.3,0-0.5c-0.1,0.1-0.2,0.2-0.2,0.5v0.1L62,43.3
			C62,43.3,62,43.3,62,43.3c0.2-0.1,0.2-0.3,0.2-0.6c-0.1,0-0.1,0-0.2,0 M62,43.3c0.1,0,0.1,0,0.2,0c0.2,0,0.2-0.1,0.2-0.3
			c0-0.1-0.1-0.1-0.1-0.2h-0.1c0,0,0-0.1-0.2-0.1c-0.3-0.1-0.4,0-0.4,0.3c0,0.1,0,0.2,0,0.2c0,0.1,0.1,0.1,0.2,0.1
			c0.1,0.2,0.3,0.3,0.6,0.2c0.1,0,0.1,0,0.1-0.2s0-0.4,0-0.6 M71.2,46.8l3.4,1.1c2.2,1,3.3,2.4,3.2,4 M60.7,42.4
			c0.1,1.6,0.8,2.3,2,2.1 M92.8,50.7c0,11.6-4.1,21.5-12.3,29.7S62.4,92.7,50.8,92.7s-21.5-4.1-29.7-12.3S8.8,62.3,8.8,50.7
			S12.9,29.2,21.1,21S39.2,8.7,50.8,8.7S72.3,12.8,80.5,21S92.8,39.1,92.8,50.7z M25.6,69c-0.2,1.4-0.5,2.3-0.9,2.6 M36,52.5l0.6,1
			c0.5,0.4,1.2,0,2-1.2 M62.5,52.2l-0.2,4.5c-0.5,3-1.6,4.9-3.3,5.7 M48.1,51.8l1.2,2.5c1.2,0,2.9-1.1,5.2-3.3
			c1.1-1.1,2.1-2.3,3-3.4 M49.3,54.2l0.5,1c1.8,2.7,4.6,5.1,8.4,7"/>
	</g>
</g>
</svg>
