<?xml version="1.0" encoding="utf-8"?>
<!-- Generator: Adobe Illustrator 21.1.0, SVG Export Plug-In . SVG Version: 6.00 Build 0)  -->
<svg version="1.1" id="Layer_1" opacity="0.8" xmlns="http://www.w3.org/2000/svg" xmlns:xlink="http://www.w3.org/1999/xlink"
	 x="0px" y="0px" viewBox="0 0 100 125" style="enable-background:new 0 0 100 125;" xml:space="preserve">
<style type="text/css">
	.st0{fill:url(#SVGID_1_);}
	.st1{fill:none;stroke:#3ECCED;stroke-linecap:round;stroke-linejoin:round;}
</style>
<g transform="matrix( 1, 0, 0, 1, 0,0) ">
	<g>
		<g id="b">
			<linearGradient id="SVGID_1_" gradientUnits="userSpaceOnUse" x1="7.1" y1="50.4" x2="92.5" y2="50.4">
				<stop  offset="0" style="stop-color:#3FFFCC"/>
				<stop  offset="1" style="stop-color:#158CFF"/>
			</linearGradient>
			<path class="st0" d="M80,20.2C71.7,11.9,61.6,7.7,49.8,7.7s-21.9,4.2-30.2,12.5S7.1,38.6,7.1,50.4s4.2,21.9,12.5,30.2
				S38,93.1,49.8,93.1S71.7,88.9,80,80.6s12.5-18.4,12.5-30.2S88.3,28.5,80,20.2 M65.8,36.5L62,32.8c1.5-0.7,3.6-0.7,6.3,0.2
				c1.4,0.4,2.6,0.9,3.7,1.4c-1.2-2.8-3.8-4.7-7.7-5.8l-5.5-0.8c9.3-6.7,15.1-6.7,17.6-0.1c1.2,3.3,1.5,7.2,0.9,11.9
				c1.8,6.9,1.1,12.2-1.9,15.8c-1.5,1.8-3.2,2.9-5.1,3.3l-1,2.4l6.7-1l1.6,9.3l-3.8-6.8l-6.1,0.6l-1.2,1.4l6.5,0.8l1.2,8.2l-3-6.7
				l-6.4-0.2l-1,1l5.2,2.2l1,6.1l-2.8-4.6l-5-2.2c-5.6,5.4-11.9,7-19,4.7c-2.2-0.7-4.4-1.8-6.5-3.2l-2.5-1.9l-4.1,2.8L28.3,77
				L28,70.5l5.2-3l-0.7-0.7L26,67.3l-3.4,6.8l1.8-8.8l6.4-0.6l-1.5-1.9l-6.8-0.2l-4.1,9.8l3-11.8l7,0.5l-1-1.4l-0.9-1.4
				c-5.8-3.3-8-7.6-6.6-12.7c0.4-1.6,1.2-3.2,2.4-4.8l1.5-1.9c3.5-12.3,8-16.7,13.7-13.2c2.9,1.7,5.4,4.7,7.5,8.9
				c-3.8-3.2-7.5-3.7-11.2-1.5c-1.8,1.1-3.3,2.4-4.3,4.1c2.2-0.9,4.5-1.2,6.9-0.8c1.2,0.2,2.2,0.5,2.9,0.9c-2.4,2.5-5.5,3.8-9.3,4.1
				L25.1,41c-3.2,3.9-4.2,7.3-2.9,10.2c0.6,1.5,1.5,2.6,2.8,3.3c10-7.2,20.9-9.5,32.7-7c5.9,1.2,10.7,3.2,14.6,5.9v1.1
				c3.2-2.3,4.6-5.6,4.2-9.8c-0.1-1.3-0.4-2.7-0.9-4L74.9,39C71.9,39.7,68.8,38.8,65.8,36.5z"/>
		</g>
	</g>
	<g>
		<path id="a" class="st1" d="M70.3,58.6c1.9-0.4,3.6-1.5,5.1-3.3c3-3.6,3.7-8.9,1.9-15.8c0.6-4.6,0.3-8.6-0.9-11.9
			c-2.5-6.6-8.3-6.6-17.6,0.1l5.5,0.8c3.9,1.1,6.4,3,7.7,5.8c-1.1-0.6-2.3-1-3.7-1.4c-2.7-0.8-4.8-0.9-6.3-0.2l3.8,3.7
			c3.1,2.3,6.1,3.2,9.1,2.6l0.7,1.7c0.5,1.4,0.8,2.7,0.9,4c0.4,4.2-1,7.5-4.2,9.8L70.3,58.6l-1,2.4l6.7-1l1.6,9.3l-3.8-6.8l-6.1,0.6
			l-1.2,1.4l6.5,0.8l1.2,8.2l-3-6.7l-6.4-0.2l-1,1l5.2,2.2l1,6.1l-2.8-4.6l-5-2.2c-5.6,5.4-11.9,7-19,4.7c-2.2-0.7-4.4-1.8-6.5-3.2
			l-2.5-1.9l-4.1,2.8l-1.8,5.4L28,70.5l5.2-3l-0.7-0.7L26,67.3l-3.4,6.8l1.8-8.8l6.4-0.6l-1.5-1.9l-6.8-0.2l-4.1,9.8l3-11.8l7,0.5
			l-1-1.4l-0.9-1.4c-5.8-3.3-8-7.6-6.6-12.7c0.4-1.6,1.2-3.2,2.4-4.8l1.5-1.9c3.5-12.3,8-16.7,13.7-13.2c2.9,1.7,5.4,4.7,7.5,8.9
			c-3.8-3.2-7.5-3.7-11.2-1.5c-1.8,1.1-3.3,2.4-4.3,4.1c2.2-0.9,4.5-1.2,6.9-0.8c1.2,0.2,2.2,0.5,2.9,0.9c-2.4,2.5-5.5,3.8-9.3,4.1
			L25.1,41c-3.2,3.9-4.2,7.3-2.9,10.2c0.6,1.5,1.5,2.6,2.8,3.3c10-7.2,20.9-9.5,32.7-7c5.9,1.2,10.7,3.2,14.6,5.9v1.1 M92.5,50.4
			c0,11.8-4.2,21.9-12.5,30.2S61.6,93.1,49.8,93.1s-21.9-4.2-30.2-12.5S7.1,62.2,7.1,50.4s4.2-21.9,12.5-30.2S38,7.7,49.8,7.7
			S71.7,11.9,80,20.2S92.5,38.6,92.5,50.4z M30,54.6l1.2,1.5c0.9,0.6,1.5-0.2,1.9-2.3 M25,54.6l2.5,5.1 M64.7,53.3l-0.2,2
			c0.3,1,1.4,0.7,3.2-0.8"/>
	</g>
</g>
</svg>
