<?xml version="1.0" encoding="utf-8"?>
<!-- Generator: Adobe Illustrator 21.1.0, SVG Export Plug-In . SVG Version: 6.00 Build 0)  -->
<svg version="1.1" id="Layer_1" opacity="0.8" xmlns="http://www.w3.org/2000/svg" xmlns:xlink="http://www.w3.org/1999/xlink"
	 x="0px" y="0px" viewBox="0 0 100 125" style="enable-background:new 0 0 100 125;" xml:space="preserve">
<style type="text/css">
	.st0{fill:url(#SVGID_1_);}
	.st1{fill:none;stroke:#3ECCED;stroke-linecap:round;stroke-linejoin:round;}
</style>
<g transform="matrix( 1, 0, 0, 1, 0,0) ">
	<g>
		<g id="b">
			<linearGradient id="SVGID_1_" gradientUnits="userSpaceOnUse" x1="8.6" y1="50" x2="91.4" y2="50">
				<stop  offset="0" style="stop-color:#3FFFCC"/>
				<stop  offset="1" style="stop-color:#158CFF"/>
			</linearGradient>
			<path class="st0" d="M79.3,21C71.2,13,61.5,9,50,9s-21.2,4-29.3,12c-8,8-12.1,17.7-12.1,29s4,21,12.1,29S38.6,91,50,91
				s21.2-4,29.3-12s12.1-17.7,12.1-29S87.4,29,79.3,21 M69.2,20.2l1.8,0.2c-1.4,0.2-2.8,0.8-4.2,1.8c-2.8,1.9-4.3,4.7-4.4,8.3
				l3.2,0.9c2.4,1.1,4.4,2.9,5.8,5.6h0.2l1.6-0.2c1.1-0.2,1.9-0.5,2.4-0.8c-0.1,0.5-0.3,1-0.6,1.6c-0.7,1.2-1.6,2.2-2.9,2.9l0.7,3.4
				c0.4,2.7,0.5,5.3,0.4,7.6c-0.3,7.6-3.1,12-8.3,13.2c-2.2,0-4.7,0.1-7.5,0.2c-5.5,0.2-9.7,0.6-12.4,1.2c-1.4,0.3-2.7,0.6-4.1,1.1
				c-2.5,0.8-4,1.4-4.6,1.9l0.4,0.2c0.3,2.5-0.2,4.9-1.3,7.3c-0.6,1.2-1.2,2.2-1.8,2.8c-2,0.7-3.6,0.9-5,0.5L27,79.2
				c-1.2-1.5-1.6-3.2-1.1-5l0.6-1.5l0.9-1.1c1.5-0.8,2.5-0.9,3.2-0.3c0.4,0.3,0.6,0.6,0.6,1.1c-0.2-0.1-0.5-0.1-0.8,0L30,72.7
				c-0.7,0.5-0.7,0.9,0.2,1.3c0.5,0.2,1,0.3,1.5,0.5c1-0.4,1.8-1.3,2.2-2.8l0.4-2.2c-1.3-0.5-2.7-2.2-4.2-5.2c0.8-1,1.4-1.8,1.8-2.5
				c-0.6,0.7-1.2,1.1-1.8,1.4c-1.1,0.5-1.6-0.1-1.4-2c11.1-9.3,19-16.5,23.6-21.6c-2.9-0.7-5.3-1.8-7.2-3.3
				c-3.9-2.9-3.4-6.2,1.5-9.8l1.7-0.9c2.1-0.7,3.6-1.1,4.6-1c1.4,0.1,2.3,1,2.6,2.8l0,0C57.5,21.6,62,19.3,69.2,20.2 M52.3,29.4
				c0.4,0.6,1.3,1,2.6,1.1c0.2-1.2,0.4-2.2,0.7-3v-0.1l0,0c0,0.1-0.1,0.1-0.5,0c-0.4-0.2-0.7-0.3-0.8-0.3c-0.9,0-1.7,0.5-2.4,1.5
				L52.3,29.4z"/>
		</g>
	</g>
	<g>
		<path id="a" class="st1" d="M55.7,27.4c1.8-5.7,6.3-8.1,13.5-7.1l1.8,0.2c-1.4,0.2-2.8,0.8-4.2,1.8c-2.8,1.9-4.3,4.7-4.4,8.3
			l3.2,0.9c2.4,1.1,4.4,2.9,5.8,5.6h0.2l1.6-0.2c1.1-0.2,1.9-0.5,2.4-0.8c-0.1,0.5-0.3,1-0.6,1.6c-0.7,1.2-1.6,2.2-2.9,2.9l0.7,3.4
			c0.4,2.7,0.5,5.3,0.4,7.6c-0.3,7.6-3.1,12-8.3,13.2c-2.2,0-4.7,0.1-7.5,0.2c-5.5,0.2-9.7,0.6-12.4,1.2c-1.4,0.3-2.7,0.6-4.1,1.1
			c-2.5,0.8-4,1.4-4.6,1.9l0.4,0.2c0.3,2.5-0.2,4.9-1.3,7.3c-0.6,1.2-1.2,2.2-1.8,2.8c-2,0.7-3.6,0.9-5,0.5L27,79.2
			c-1.2-1.5-1.6-3.2-1.1-5l0.6-1.5l0.9-1.1c1.5-0.8,2.5-0.9,3.2-0.3c0.4,0.3,0.6,0.6,0.6,1.1c-0.2-0.1-0.5-0.1-0.8,0L30,72.7
			c-0.7,0.5-0.7,0.9,0.2,1.3c0.5,0.2,1,0.3,1.5,0.5c1-0.4,1.8-1.3,2.2-2.8l0.4-2.2c-1.3-0.5-2.7-2.2-4.2-5.2c0.8-1,1.4-1.8,1.8-2.5
			c-0.6,0.7-1.2,1.1-1.8,1.4c-1.1,0.5-1.6-0.1-1.4-2c11.1-9.3,19-16.5,23.6-21.6c-2.9-0.7-5.3-1.8-7.2-3.3c-3.9-2.9-3.4-6.2,1.5-9.8
			l1.7-0.9c2.1-0.7,3.6-1.1,4.6-1C54.5,24.7,55.4,25.6,55.7,27.4L55.7,27.4v0.1c-0.3,0.9-0.5,1.9-0.7,3c-0.3,2-0.3,4,0,5.9l0,0
			l1.3,1l1.4-5.2L59,35l1.3-2.2l1.2,2l1-2.1c-0.1-0.5-0.1-1.2-0.1-2.1 M55.7,27.4c0,0.1-0.1,0.1-0.5,0c-0.4-0.2-0.7-0.3-0.8-0.3
			c-0.9,0-1.7,0.5-2.4,1.5l0.3,0.9c0.4,0.6,1.3,1,2.6,1.1 M54.8,36.7L54.7,36v0.6L54.8,36.7l0.2-0.2 M52.5,39.6
			c0.4-0.4,0.8-0.9,1.2-1.5c0.2-0.4,0.5-0.8,0.9-1.4l-1.4,1.2c-1.9-0.9-3.5-2-4.8-3.3c-2.6-2.5-2.3-4.7,0.8-6.4L48.7,29
			c-0.1,0.7-0.1,1.4,0,2.1c0.5,2.2,2.4,4.1,5.8,5.7 M47.1,47.8V49c0.1,0.8,0.6,1.2,1.3,1.2c0.2,0,0.5,0,0.7-0.2
			c0.5-0.3,0.7-0.9,0.8-1.8 M62.5,32.7l2.9,2c2.2,1.3,4.2,2.1,6,2.3 M62.3,38.5l2.4,2.2c2.1,1.2,4.6,1.2,7.3-0.2 M91.4,50
			c0,11.3-4,21-12.1,29S61.5,91,50,91s-21.2-4-29.3-12S8.6,61.3,8.6,50s4-21,12.1-29C28.9,13,38.6,9,50,9s21.2,4,29.3,12
			S91.4,38.7,91.4,50z M36.2,69.2L36.2,69.2c-0.5,0.5-1.1,0.5-1.8,0.3"/>
	</g>
</g>
</svg>
