<?xml version="1.0" encoding="utf-8"?>
<!-- Generator: Adobe Illustrator 21.1.0, SVG Export Plug-In . SVG Version: 6.00 Build 0)  -->
<svg version="1.1" id="Layer_1" xmlns="http://www.w3.org/2000/svg" xmlns:xlink="http://www.w3.org/1999/xlink" x="0px" y="0px"
	 viewBox="0 0 100 125" style="enable-background:new 0 0 100 125;" xml:space="preserve">
<style type="text/css">
	.st0{fill:none;stroke:#000000;stroke-linecap:round;stroke-linejoin:round;}
</style>
<g transform="matrix( 1, 0, 0, 1, 0,0) ">
	<g>
		<g id="b">
			<path d="M79.8,20.1C71.6,12,61.8,7.9,50.2,7.9S28.8,12,20.5,20.1C12.4,28.4,8.3,38.2,8.3,49.8s4.1,21.4,12.2,29.6
				c8.2,8.2,18.1,12.3,29.7,12.3c11.6,0,21.4-4.1,29.6-12.3c8.2-8.2,12.3-18,12.3-29.6S88,28.4,79.8,20.1 M76.6,45.6l-1.5-1.1
				c1.6,3.8,2.2,7.3,1.7,10.7c-0.3,1.7-0.7,3-1.3,3.9L74.6,56c-0.4,3.1-1.3,6-2.8,8.5c-0.8,1.2-1.5,2.2-2.2,2.8
				c0.3-0.8,0.2-1.9-0.2-3.2c-0.3,1.6-1.5,4-3.7,7.2c-1.1,1.6-2.1,3.1-3.1,4.4c-0.3-1.7-0.6-2.7-0.8-3.2c-0.1-0.3-0.7,0.7-1.9,3
				c-0.6,1.1-1.2,2.3-1.8,3.4c0.1-2,0.2-3.2,0.2-3.8c0.1-0.7-0.6,0.2-2.2,2.8c-0.8,1.3-1.6,2.7-2.4,4.2l-0.2-3.7l-3.2,6.8l-3.5-6.2
				l-0.6,2.2l-3.5-7.6l-0.4,2.8c-0.8-0.6-1.6-1.9-2.5-3.8l-1.1-2.8l-0.9,3c-2.2-1.8-4-4.2-5.3-7.2l-1.3-4c-0.3,0.8-0.4,2.2-0.5,4.1
				c-1.3-1.5-2.1-3.3-2.5-5.5l-0.1-3c-0.2,0.8-0.9,1.4-2,2c-1-3.4-1.4-7.1-1-11l1-4.8L24.4,44c2.6-11.9,7.8-19.5,15.4-22.8
				c3.9-1.6,7.5-2,10.8-1.2c8.9-2.6,15.9,0.9,21,10.5C74.1,35.2,75.8,40.3,76.6,45.6z"/>
		</g>
	</g>
	<g>
		<path id="a" class="st0" d="M50,30.7c-0.2,0.3-0.8,1-1.9,1.9c-2.1,1.9-5.4,4.5-9.9,7.8L37.5,41c-0.4,0.6-0.7,1.2-0.8,1.8
			c-0.4,2.2,1,4.5,4.2,6.9L40.8,51c-0.2,1-0.5,2-0.9,2.8l0.7,1.2c0.6,0.9,1.2,1.6,1.9,2.1c2.2,1.6,4.7,0.9,7.4-2.2l0.7,1.8
			c1,1.2,2.9,1.8,5.8,1.7c0.9-0.2,1.6-0.8,2.3-1.6c1.3-1.7,1.5-4.1,0.4-7.2c0.9-0.4,1.7-1,2.5-1.9c1.4-1.8,1.7-4,0.8-6.5
			C55.1,35.5,51,32,50,30.7z M41.6,41.8l0.6,1.3c0.5,0.5,1,0,1.5-1.6 M56.5,41.3l0.5,1.5c0.5,0.7,1.1,0.2,2-1.3 M49.8,53.8
			c-1.3-0.6-2.5-1.2-3.5-1.9c-2.1-1.4-2.5-2.2-1.1-2.6l9.6-0.1l0.4,0.1c0.3,0.1,0.4,0.3,0.3,0.6C55.3,50.8,53.4,52.1,49.8,53.8z
			 M61.3,33.8l1.1,1.2c3.2-2.1,4.8-2.1,4.6,0c-0.1,1-0.4,2.3-1.2,3.8L62.5,35 M67.4,36.5l1.1,2c0.8,1.7,1.5,3.5,2,5.5
			c1.6,6.3,1.2,12.7-1.1,19.3 M50.3,85.2l3.2-6.8l0.2,3.7c0.8-1.4,1.6-2.8,2.4-4.2c1.6-2.6,2.3-3.5,2.2-2.8
			c-0.1,0.5-0.2,1.8-0.2,3.8c0.6-1.2,1.2-2.3,1.8-3.4c1.2-2.2,1.8-3.2,1.9-3c0.2,0.4,0.4,1.5,0.8,3.2c1-1.3,2-2.8,3.1-4.4
			c2.1-3.2,3.3-5.7,3.7-7.2c0.5,1.3,0.6,2.4,0.2,3.2c0.7-0.6,1.4-1.6,2.2-2.8c1.5-2.5,2.5-5.3,2.8-8.5l0.8,3.1
			c0.6-0.9,1-2.2,1.3-3.9c0.5-3.4,0-6.9-1.7-10.7l1.5,1.1c-0.8-5.3-2.5-10.3-5-15.1c-5.1-9.6-12.1-13.1-21-10.5
			c-3.3-0.8-6.9-0.4-10.8,1.2C32.1,24.4,26.9,32,24.4,44l1.8-0.5l-1,4.8c-0.4,3.9-0.1,7.6,1,11c1.1-0.6,1.8-1.2,2-2l0.1,3
			c0.4,2.2,1.2,4.1,2.5,5.5c0.1-1.9,0.2-3.3,0.5-4.1l1.3,4c1.3,3,3.1,5.4,5.3,7.2l0.9-3l1.1,2.8c0.9,1.9,1.7,3.2,2.5,3.8l0.4-2.8
			l3.5,7.6l0.6-2.2L50.3,85.2z M92.1,49.8c0,11.6-4.1,21.4-12.3,29.6c-8.2,8.2-18,12.3-29.6,12.3c-11.6,0-21.5-4.1-29.7-12.3
			c-8.2-8.2-12.2-18-12.2-29.6s4.1-21.4,12.2-29.6C28.8,12,38.6,7.9,50.2,7.9S71.6,12,79.8,20.1C88,28.4,92.1,38.2,92.1,49.8z
			 M50.7,24.2l5.6,1.5c4.1,1.7,7,4.1,8.7,7.2 M36.2,32.2c1.2-1.2,2.7-2.5,4.5-3.8c3.5-2.6,6.7-4,9.6-4.2 M39.8,32.1l-1.1,1.5
			L36,37.3c-0.8-1.1-1.3-2.1-1.5-3c-0.4-1.7,1.1-2,4.3-0.8 M42.7,72.9c-0.9-1.4-1.7-3.1-2.4-5.2c-1.4-4.1-1.7-7.9-1-11.3l0.4-2
			 M31.2,61.1c-0.9-2.5-1.4-5.5-1.6-8.9c-0.4-6.8,1.1-12.3,4.6-16.6 M43.2,58.2l1,1.4c0.8,1,1.7,1.8,2.6,2.4c3,1.7,6,0.7,9.1-3
			 M59.8,55.2l1,6.3c0.3,4.9-0.4,9.2-2.3,12.7"/>
	</g>
</g>
</svg>
