<?xml version="1.0" encoding="utf-8"?>
<!-- Generator: Adobe Illustrator 21.1.0, SVG Export Plug-In . SVG Version: 6.00 Build 0)  -->
<svg version="1.1" id="Layer_1" xmlns="http://www.w3.org/2000/svg" xmlns:xlink="http://www.w3.org/1999/xlink" x="0px" y="0px"
	 viewBox="0 0 100 125" style="enable-background:new 0 0 100 125;" xml:space="preserve">
<style type="text/css">
	.st0{opacity:0.8;}
	.st1{fill:url(#SVGID_1_);}
	.st2{fill:none;stroke:#3ECCED;stroke-linecap:round;stroke-linejoin:round;}
</style>
<g transform="matrix( 1, 0, 0, 1, 0,0) " class="st0">
	<g>
		<g id="b">
			<linearGradient id="SVGID_1_" gradientUnits="userSpaceOnUse" x1="8.9" y1="50.25" x2="91.7" y2="50.25">
				<stop  offset="0" style="stop-color:#3FFFCC"/>
				<stop  offset="1" style="stop-color:#158CFF"/>
			</linearGradient>
			<path class="st1" d="M79.5,21.2c-8.1-8-17.8-12-29.2-12s-21.2,4-29.3,12S8.9,38.9,8.9,50.2s4,21,12.1,29s17.9,12.1,29.3,12.1
				s21.2-4,29.2-12.1c8.1-8,12.2-17.7,12.2-29S87.6,29.2,79.5,21.2 M59.4,30.1l1.1,1c0.8,0.9,1.5,1.8,1.8,2.8
				c1.4,3.2,0.6,6.4-2.4,9.6c-0.7,0.5-1.7,0.9-3,1.3c-2.5,0.9-5,1.2-7.5,1.1c-0.9,0.1-2.1,0.3-3.6,0.6c-0.2,1.2-0.7,2.4-1.5,3.7
				c-1.5,2.5-3.7,3.8-6.5,4c0.6-1.1,1.3-2.2,2.1-3.4c1.4-2,2.5-3.3,3.5-3.7c-1.5,0.4-3.1,1-4.7,1.7c-0.9,0.5-1.8,1.2-2.8,2
				c-2,1.6-3.3,3.2-4.1,4.8l-1.1,2.7c-0.8,2.1-1.4,3.7-1.8,5c3.1,1.9,5.1,4.3,6,7.5c0.5,1.6,0.6,2.9,0.5,4.1c-2.2-1-4-2.9-5.4-5.8
				l-1.4-4c0,3.4-1,6.2-2.9,8.4c-0.9,1.1-1.9,1.8-2.8,2.2c-0.4-4.9,0.4-8.3,2.4-10.2c0.6-0.6,1.3-1,2.1-1.3c0.4-0.1,0.7-0.2,1-0.2
				l-0.2-1c-0.4-2.6-0.4-5.6,0-9c0.7-5.7,2.5-10.8,5.6-15.2c-0.6,0.2-1.3,0.4-2.1,0.6c-1.8,0.3-3.3,0.2-4.6-0.2
				c0.8-0.9,1.9-1.7,3-2.4c2.4-1.5,4.5-1.9,6.2-1.2c0.7-0.7,1.4-1.4,2.1-2.1l1.8-1.2c1.6-0.9,3.2-1.6,4.8-2.1
				C50.5,28.1,55.2,28.2,59.4,30.1 M70.9,37L70.9,37l0.4,4.9c0.1,4.1-0.5,8-1.7,11.8c-0.9,2.6-2.1,5.1-3.6,7.4
				c1.2-0.8,2.8-1.2,4.8-1.2c1.1,0,2,0.1,2.8,0.2c-1.7,2.2-3.8,3.6-6.2,4.1l-3.2,0.2l1.8-3.2c-1.3,2-2.9,3.9-4.7,5.7l-1.7,1.2
				c-1.5,0.9-3.1,1.7-4.8,2.2c-5.2,1.9-9.9,2-14.2,0.1l-1.1-1c-0.8-0.9-1.5-1.8-1.9-2.7c-1.5-3.1-0.8-6.4,2-9.7
				c0.7-0.4,1.7-0.8,3-1.3c2.5-0.9,5-1.4,7.5-1.3c1.9-0.2,4-0.7,6-1.4c0-1,0.2-2,0.8-3.1c1.2-2.3,3.2-3.8,6.2-4.7
				c0,0.5-0.3,1.2-0.7,2c-0.9,1.7-2.4,3.4-4.4,5.1c0.9-0.3,1.7-0.6,2.5-1c0-0.1,0.1-0.1,0.1-0.1c0.2-0.1,0.3-0.2,0.5-0.3
				c0.7-0.5,1.5-1.1,2.4-1.8c2-1.7,3.3-3.3,3.9-4.9c0.9-1.8,1.7-4,2.3-6.5L70,37c-3.4-2.8-5-5.7-4.6-8.7c0.1-0.9,0.5-1.8,1-2.6
				c0.2-0.4,0.5-0.7,0.7-1c2.2,1.6,3.4,4,3.6,7.2l1.6-2.9c1.3-2,2.5-3.2,3.6-3.6l0.1,4.1C75.4,32.5,73.7,35,70.9,37z"/>
		</g>
	</g>
	<g>
		<path id="a" class="st2" d="M56.8,31.7c0.5,0,0.9,0,1.4,0.1c0,0,0.1,0.1,0.1,0.2c0.1,0.1,0.1,0.1,0.2,0.1c0.1,0.1,0.1,0.2,0,0.5
			s-0.2,0.5-0.3,0.8c0,0.1-0.1,0.2-0.2,0.2c-0.1,0-0.1,0.1-0.2,0.1 M28.4,53.8C29.1,48,31,42.9,34,38.5c-0.6,0.2-1.3,0.4-2.2,0.6
			c-1.8,0.3-3.3,0.2-4.6-0.2c0.8-0.9,1.9-1.7,3-2.4c2.4-1.5,4.5-1.9,6.3-1.2c0.7-0.7,1.3-1.4,2.1-2.1l1.8-1.2
			c1.6-0.9,3.2-1.6,4.8-2.1c5.2-1.8,10-1.7,14.2,0.3l1.1,1c0.8,0.9,1.5,1.8,1.8,2.8c1.4,3.2,0.6,6.4-2.4,9.6c-0.7,0.5-1.7,0.9-3,1.3
			c-2.5,0.9-5,1.2-7.5,1.1c-0.9,0.1-2.1,0.3-3.6,0.6c-0.2,1.2-0.7,2.4-1.5,3.7c-1.5,2.5-3.7,3.8-6.5,4c0.6-1.1,1.3-2.2,2.1-3.4
			c1.4-2,2.5-3.2,3.5-3.7c-1.5,0.4-3.1,1-4.7,1.6c-0.9,0.5-1.8,1.2-2.8,2c-2,1.6-3.3,3.2-4.1,4.8l-1.1,2.7c-0.8,2.1-1.4,3.7-1.8,5
			c3.1,1.9,5.1,4.3,6,7.5c0.5,1.6,0.6,2.9,0.5,4.1c-2.2-1-4-2.9-5.4-5.8l-1.4-4c0,3.4-1,6.2-2.9,8.4c-0.9,1.1-1.9,1.8-2.8,2.2
			c-0.4-4.9,0.4-8.3,2.4-10.2c0.6-0.6,1.3-1,2.1-1.3c0.4-0.1,0.7-0.2,1-0.2l-0.2-1C28,60.2,28,57.2,28.4,53.8z M45.8,46.5
			c-0.7,0.1-1.3,0.3-2,0.5c-0.1,0-0.3,0.1-0.4,0.1 M41,41.3c2.1-1.3,3.4-1.9,4-1.8l-4.6-3l-0.8,5.7C40.1,41.9,40.6,41.6,41,41.3z
			 M58.5,39c0.5,0,0.9,0,1.4,0.1c0,0,0.1,0.1,0.1,0.2c0.1,0.1,0.1,0.1,0.2,0.2c0.1,0.1,0.2,0.2,0,0.5c-0.1,0.3-0.2,0.5-0.3,0.8
			c0,0.1-0.1,0.2-0.2,0.2c-0.1,0-0.2,0.1-0.2,0.1 M71.3,41.8c0.1,4.1-0.5,8-1.7,11.8c-0.9,2.6-2.1,5.1-3.6,7.4
			c1.2-0.8,2.8-1.2,4.8-1.2c1.1,0,2,0.1,2.8,0.2c-1.7,2.2-3.8,3.6-6.2,4.1l-3.2,0.2l1.8-3.2c-1.3,2-2.9,3.9-4.7,5.7L59.6,68
			c-1.5,0.9-3.1,1.7-4.8,2.2c-5.2,1.9-9.9,2-14.2,0.1l-1.1-1c-0.8-0.9-1.5-1.8-1.9-2.7c-1.5-3.1-0.8-6.4,2-9.7
			c0.7-0.4,1.7-0.8,3-1.3c2.5-0.9,5-1.4,7.5-1.3c1.9-0.2,4-0.7,6-1.4c0-1,0.2-2,0.8-3.1c1.2-2.3,3.2-3.8,6.2-4.7
			c0,0.5-0.3,1.2-0.7,2c-0.9,1.7-2.4,3.4-4.4,5.1c0.9-0.3,1.7-0.7,2.5-1c0-0.1,0.1-0.1,0.1-0.1c0.2-0.1,0.3-0.2,0.5-0.3
			c0.7-0.5,1.5-1.1,2.4-1.8c2-1.7,3.3-3.3,3.9-4.9c0.9-1.8,1.7-4,2.4-6.4V37c-3.4-2.8-5-5.7-4.6-8.7c0.1-0.9,0.5-1.8,1-2.6
			c0.2-0.4,0.5-0.7,0.7-1c2.2,1.6,3.4,4,3.6,7.2l1.6-2.9c1.3-2,2.5-3.2,3.6-3.6l0.1,4.1c-0.5,3-2.2,5.5-5,7.5l0.2,0L71.3,41.8z
			 M70,37c0.3-0.7,0.4-1.4,0.5-1.9l0.1,0.3c0.2-1.3,0.2-2.5,0.1-3.4 M70,37c0.2,0,0.4-0.6,0.6-1.6L71,37 M91.7,50.2
			c0,11.3-4.1,21-12.2,29S61.7,91.3,50.3,91.3s-21.2-4-29.3-12.1c-8.1-8-12.1-17.7-12.1-29s4-21,12.1-29s17.9-12,29.3-12
			s21.2,4,29.2,12C87.6,29.2,91.7,38.9,91.7,50.2z M38.1,43.2c0.5-0.4,1-0.7,1.6-1.1 M34,38.5L34,38.5c0.8-1.1,1.6-2.2,2.5-3.2
			 M38.7,33.2L34,38.5 M29,63.2c-0.2,0.7-0.3,1.1-0.3,1.2l-0.1-0.7 M66.1,61L66.1,61 M53.1,61.2l2.7-5.4l4.3,1.5L53.1,61.2z
			 M56.3,52.8c0.4-0.1,0.7-0.2,1.1-0.4l0.3-0.1c0.2-0.1,0.4-0.1,0.5-0.2 M42.1,61.8c-0.5-0.1-0.9-0.3-1.3-0.5l-0.1-0.1
			c0-0.1-0.1-0.2-0.1-0.2c-0.1-0.1-0.1-0.3,0.1-0.5c0.1-0.3,0.3-0.5,0.5-0.6c0-0.1,0.1-0.2,0.2-0.2 M45,68.2
			c-0.5,0.1-0.9,0.2-1.3,0.2c-0.1,0-0.1,0-0.2-0.1c-0.1-0.1-0.2-0.1-0.2-0.1c-0.1,0-0.2-0.2-0.2-0.5s0.1-0.6,0.2-0.8
			c0-0.1,0-0.2,0.1-0.3c0.1-0.1,0.1-0.1,0.2-0.1"/>
	</g>
</g>
</svg>
