<?xml version="1.0" encoding="utf-8"?>
<!-- Generator: Adobe Illustrator 21.1.0, SVG Export Plug-In . SVG Version: 6.00 Build 0)  -->
<svg version="1.1" id="Layer_1" xmlns="http://www.w3.org/2000/svg" xmlns:xlink="http://www.w3.org/1999/xlink" x="0px" y="0px"
	 viewBox="0 0 100 125" style="enable-background:new 0 0 100 125;" xml:space="preserve">
<style type="text/css">
	.st0{fill:none;stroke:#000000;stroke-linecap:round;stroke-linejoin:round;}
</style>
<g transform="matrix( 1, 0, 0, 1, 0,0) ">
	<g>
		<g id="b">
			<path d="M79.7,21.1c-8-8-17.7-12-29-12c-11.3,0-21,4-29.1,12c-8,8.1-12,17.8-12,29.1c0,11.3,4,21,12,29c8,8,17.7,12,29.1,12
				c11.4,0,21-4,29-12c8-8,12.1-17.6,12.1-29C91.8,38.8,87.7,29.1,79.7,21.1 M52.7,40.1c0,0.2-0.6,2.2-1.8,6c-1.3,4.1-2.1,6.8-2.4,8
				c-1.6,6.5-2.5,11.2-2.9,13.9l-0.3,0.2L45,68.8l5.3,5.8c0,0.4-0.3,0.9-0.8,1.5l-4.8-4.5l-0.5,1.8l4.8,5.1c0,0.6-0.3,1.4-0.8,2.4
				l-5-5.5l-6.1,1.8l0.1-1.7l6.7-2.3l0.4-2l-7,2.2v-1.7l7.5-2.9l0.2-0.8C45,68,45,67.8,45,67.6c0-0.5,0.4-2.7,1.2-6.5
				c0.8-3.6,1.3-6.1,1.7-7.4c0.8-3.3,1.4-5.6,1.9-7c0.8-2.6,1.7-4.9,2.6-6.9L52.7,40.1 M54,33.7l-0.9,3.5C45.9,35.3,39,36.9,32.4,42
				c-3.3,2.5-5.8,5.2-7.7,8.1L24.1,51c-1.5,1.7-3.1,2-5,1.1c-1-0.4-1.9-1.2-2.6-2.2c-0.1-1.5,0.4-2.6,1.2-3.2L19,46
				c1,0.1,1.6,0.3,1.7,0.8c0,0.2,0,0.5-0.2,0.7c-0.7,0.5-1,0.9-0.9,1.2c0.1,0.1,0.2,0.2,0.4,0.2c0.8,0.5,1.9-0.3,3.4-2.2l1.8-3.1
				c4.6-5.7,10.8-9,18.6-10C47.6,33,51,33.1,54,33.7 M30.6,55.7c1.2,1.1,2.6,2.3,4,3.8c0.8,0.8,2.2,2.2,4.4,4.2
				c2.2,2,3.7,3.4,4.4,4.2c-0.2,0.2-0.3,0.3-0.4,0.3c-0.2,0-1.5-1.2-4-3.5c-2.7-2.6-4.3-4.1-4.9-4.7c-1.2-1.1-3-2.7-5.6-4.9
				c-2.3-2-3.6-3.1-3.9-3.5C26.3,52.2,28.3,53.5,30.6,55.7 M81.8,62.2c0.6,1.1,0.6,2.5,0,4c-1,0.8-2,1.2-3.1,1.3
				c-1.9,0.2-3.2-0.9-3.9-3.3c-2,0.4-6.7,1.1-14.3,2.1c-4.7,0.6-7.1,1-7.3,1c-3.9,1-5.8,1.5-5.8,1.5c-0.2,0-0.4-0.1-0.5-0.2
				c0.2-0.3,1.1-0.6,2.5-1.1c1.4-0.5,2.5-0.7,3.3-0.8c0.4-0.1,2.8-0.4,7.2-1.1c2.7-0.4,5.8-0.8,9.3-1.2c2.3-0.3,4.1-0.6,5.4-0.8
				c-0.1-0.2-0.1-0.4-0.2-0.7c-0.7-3.9-2.2-8-4.2-12c-4.3-8.2-9.9-12.8-16.8-13.8l0.9-3.8l-0.9,3.8l0.9-3.5l2.7,0.7
				c2.2,0.7,4.3,1.7,6.3,3c6.4,4.1,10.7,10.2,13,18.3l0.6,4.2c0.6,2.7,1.3,4,2.2,3.8l0.4-0.1c0.2-0.3,0.1-0.8-0.3-1.7l0.1-0.8
				c0.2-0.5,0.8-0.6,1.7-0.2L81.8,62.2 M55.7,27.1c0,0,0-0.1,0-0.1l-6.4,2.6l8.6-12.2L60,31.6l-3.5-4.1c-1.1,2.7-1.8,4.4-2,5.3
				c0,0.1-0.1,0.1-0.2,0.1L54,32.8v-0.9C54.8,29.7,55.3,28.1,55.7,27.1z"/>
		</g>
	</g>
	<g>
		<path id="a" class="st0" d="M54.3,33.8l2.7,0.7c2.2,0.7,4.3,1.7,6.3,3c6.4,4.1,10.7,10.2,13,18.3l0.6,4.2c0.6,2.7,1.3,4,2.2,3.8
			l0.4-0.1c0.2-0.3,0.1-0.8-0.3-1.7l0.1-0.8c0.2-0.5,0.8-0.6,1.7-0.2l1,1.2c0.6,1.1,0.6,2.5,0,4c-1,0.8-2,1.2-3.1,1.3
			c-1.9,0.2-3.2-0.9-3.9-3.3 M74.7,63.8c-0.1-0.2-0.1-0.4-0.2-0.7c-0.7-3.9-2.2-8-4.2-12c-4.3-8.2-9.9-12.8-16.8-13.8l0.9-3.8
			 M55.7,27l-6.4,2.6l8.6-12.2L60,31.6l-3.5-4.1 M45.2,68.1L45,68.8l5.3,5.8c0,0.4-0.3,0.9-0.8,1.5l-4.8-4.5l-0.5,1.8l4.8,5.1
			c0,0.6-0.3,1.4-0.8,2.4l-5-5.5l-6.1,1.8l0.1-1.7l6.7-2.3l0.4-2l-7,2.2v-1.7l7.5-2.9l-0.6,2.3 M54,33.7c-3-0.6-6.4-0.7-10.2-0.2
			c-7.8,1-14,4.4-18.6,10l-1.8,3.1c-1.4,2-2.5,2.7-3.4,2.2c-0.2,0-0.3-0.1-0.4-0.2c-0.1-0.3,0.2-0.7,0.9-1.2
			c0.2-0.2,0.2-0.4,0.2-0.7c-0.1-0.5-0.6-0.7-1.7-0.8l-1.3,0.6c-0.9,0.7-1.3,1.7-1.2,3.2c0.8,1,1.7,1.8,2.6,2.2
			c1.9,0.9,3.5,0.6,5-1.1l0.6-0.9c1.9-2.9,4.4-5.6,7.7-8.1c6.6-5,13.5-6.6,20.7-4.8L54,33.7z M91.8,50.2c0,11.4-4,21-12.1,29
			c-8,8-17.6,12-29,12c-11.3,0-21-4-29.1-12c-8-8-12-17.7-12-29c0-11.3,4-21,12-29.1c8.1-8,17.7-12,29.1-12c11.3,0,21,4,29,12
			C87.7,29.1,91.8,38.8,91.8,50.2z M44,73.2l-0.7,2.2"/>
	</g>
</g>
</svg>
