<?xml version="1.0" encoding="utf-8"?>
<!-- Generator: Adobe Illustrator 21.1.0, SVG Export Plug-In . SVG Version: 6.00 Build 0)  -->
<svg version="1.1" id="Layer_1" xmlns="http://www.w3.org/2000/svg" xmlns:xlink="http://www.w3.org/1999/xlink" x="0px" y="0px"
	 viewBox="0 0 100 125" style="enable-background:new 0 0 100 125;" xml:space="preserve">
<style type="text/css">
	.st0{fill:none;stroke:#000000;stroke-linecap:round;stroke-linejoin:round;}
</style>
<g transform="matrix( 1, 0, 0, 1, 0,0) ">
	<g>
		<g id="b">
			<path d="M78.3,22.3C70.5,14.5,61,10.6,50,10.6s-20.6,3.9-28.4,11.7S9.8,39.6,9.8,50.7s3.9,20.6,11.7,28.4S38.9,90.8,50,90.8
				s20.6-3.9,28.4-11.8s11.8-17.3,11.8-28.4S86.2,30.1,78.3,22.3 M61.2,21.3c2-0.3,3.8-0.2,5.4,0.2c5,1.4,6.9,6,5.6,13.9l0.3,2
				c0.1,1.6,0,3.2-0.3,4.5c-1,4.4-4,6.8-9.1,7.2l0.2,2.1c0.1,1.5,0,2.7-0.2,3.4l3.2-1.5l4.1,4.2l-4.6-1.9l-2.8,2.2
				c-0.1,1-0.2,1.9-0.3,2.7c-0.2,1.2-0.4,2-0.6,2.5l3.2-0.9l2.9,4.7l-3.8-3l-2.9,1.5c-0.6,2.4-1.3,4.3-2.1,5.7l2.2-0.9l3.3,3.9
				l-3.7-2l-3.4,1.6c-0.9,1.2-2,2.5-3.4,3.9c-2.2,2.1-4.4,3.6-6.5,4.4c-0.6,0.3-1.2,0.5-1.8,0.6c-1.1,0.3-2.5,0.5-4,0.6
				c-3.2,0-6-0.7-8.5-2.2c-1.2-0.7-2.5-1.7-3.9-3c-2.7-2.7-4.4-5.8-5-9.2c-0.7-2-0.8-4.5-0.5-7.3c0.7-5.8,3.5-10.7,8.5-14.9
				l-1.1,1.9c-0.6,1.6-0.4,3.2,0.5,4.8l0.3,0.4c0.2,0.3,0.2,0.7,0.2,1.1c-0.3,1.3-2.1,2.8-5.3,4.5l-1,4.8c-0.2,3.8,0.8,7.1,3.1,10
				l1.8,1.5c1.4,1.1,2.8,2,4.1,2.6c4.3,2,7.3,1.2,9.2-2.5l0.1-2.2l-2.8-2.5l-4.5,1.9l3.9-3.9l3.1,1.4c-1.1-2.9-1.6-4.8-1.8-5.9
				l-3.5-2.1L35,64.2l4.4-4.3l2.8,2.2l-0.5-2.5c-0.2-1.2-0.4-2.3-0.5-3.2l-3-2.5l-3.6,1.4l3.5-2.9l3,1.6c0.1-1.9,0.2-3.8,0.5-5.6
				c-1.8-0.5-3.4-1.4-4.9-2.8c-3-2.7-3.9-6.1-2.7-10.2c-0.1-1.1-0.2-2.4-0.2-3.8c0-2.8,0.3-4.8,0.9-6.2c0.8-1.8,2-3.3,3.7-4.6
				c3.3-2.7,7.2-3,11.7-0.8c-1.3,0.2-2.7,0.7-4.2,1.4c-3,1.5-4.9,3.5-5.8,6.1c1.1,0,1.9-0.3,2.4-1l0.6,0.9l2.5-1.1
				c1.7-1,2.9-2.3,3.4-3.9l0.4,0.9c0.2,0.7,0.3,1.4,0.2,2.1c-0.3,2.3-2.2,4.3-5.7,5.9c-0.2,0.7-0.7,1.4-1.5,2.1
				c-1.6,1.4-3.7,2.1-6.5,2l-0.5,1.2c-0.3,1-0.4,1.9-0.2,2.9c0.3,2.9,2.6,5,6.9,6.2c0.2-1.6,0.7-3.4,1.7-5.2c1.9-3.7,5-6,9-7.1
				l1.2,0.1c1,0.2,2,0.6,3,1.2c3,2.1,4.9,6.2,5.8,12.1l1.1,0.1c0.8,0,1.6-0.2,2.3-0.5c2.4-1.1,3.8-3.6,4.3-7.6
				c-1.1-0.1-2.3-0.4-3.4-0.8c-2.3-0.9-3.5-2.2-3.6-3.9c-1.1-0.8-2.1-1.8-3-3c-1.8-2.4-2.3-4.6-1.4-6.5l1,2c1,1.4,2.5,2.4,4.6,3.1
				l0.3-0.5c0.3-0.2,0.5-0.2,0.7,0l1.8,1.4c0-1.2-0.4-2.5-1.1-3.9c-1.5-2.6-4-4.2-7.8-4.8L61.2,21.3z"/>
		</g>
	</g>
	<g>
		<path id="a" class="st0" d="M41.8,45.6c0.2-1.6,0.7-3.4,1.7-5.2c1.9-3.7,5-6,9-7.1l1.2,0.1c1,0.2,2,0.6,3,1.2
			c3,2.1,4.9,6.2,5.8,12.1l1.1,0.1c0.8,0,1.6-0.2,2.3-0.5c2.4-1.1,3.8-3.6,4.3-7.6c-1.1-0.1-2.3-0.4-3.4-0.8
			c-2.3-0.9-3.5-2.2-3.6-3.9c-1.1-0.8-2.1-1.8-3-3c-1.8-2.4-2.3-4.6-1.4-6.5l1,2c1,1.4,2.5,2.4,4.6,3.1l0.3-0.5
			c0.3-0.2,0.5-0.2,0.7,0l1.8,1.4c0-1.2-0.4-2.5-1.1-3.9c-1.5-2.6-4-4.2-7.8-4.8l2.6-0.6c2-0.3,3.8-0.2,5.4,0.2
			c5,1.4,6.9,6,5.6,13.9l0.3,2c0.1,1.6,0,3.2-0.3,4.5c-1,4.4-4,6.8-9.1,7.2l0.2,2.1c0.1,1.5,0,2.7-0.2,3.4l3.2-1.5l4.1,4.2l-4.6-1.9
			l-2.8,2.2c-0.1,1-0.2,2-0.3,2.7c-0.2,1.1-0.4,2-0.6,2.5l3.2-0.9l2.9,4.7l-3.8-3l-2.9,1.5c-0.6,2.4-1.3,4.3-2.1,5.7l2.2-0.9
			l3.3,3.9l-3.7-2l-3.4,1.6c-0.9,1.2-2,2.5-3.4,3.9c-2.2,2.1-4.4,3.6-6.5,4.4c-0.6,0.2-1.2,0.4-1.8,0.6c-1.1,0.3-2.5,0.5-4,0.6
			c-3.2,0-6-0.7-8.5-2.2c-1.2-0.7-2.5-1.7-3.9-3c-2.7-2.7-4.4-5.8-5-9.2c-0.7-2-0.8-4.5-0.5-7.3c0.7-5.8,3.5-10.7,8.5-14.9l-1.1,1.9
			c-0.6,1.6-0.4,3.2,0.5,4.8l0.3,0.4c0.2,0.3,0.2,0.7,0.2,1.1c-0.3,1.3-2.1,2.8-5.3,4.5l-1,4.8c-0.2,3.8,0.8,7.1,3.1,10l1.8,1.5
			c1.4,1.1,2.8,2,4.1,2.6c4.3,2,7.3,1.2,9.2-2.5l0.1-2.2l-2.8-2.5l-4.5,1.9l3.9-3.9l3.1,1.4c-1.1-2.9-1.6-4.8-1.8-5.9l-3.5-2.1
			L35,64.2l4.4-4.3l2.8,2.2l-0.5-2.5c-0.2-1.2-0.4-2.3-0.5-3.2l-3-2.5l-3.6,1.4l3.5-2.9l3,1.6c0.1-1.9,0.2-3.8,0.5-5.6
			c-1.8-0.5-3.4-1.4-4.9-2.8c-3-2.7-3.9-6.1-2.7-10.2c-0.1-1.1-0.2-2.4-0.2-3.8c0-2.8,0.3-4.8,0.9-6.2c0.8-1.8,2-3.3,3.7-4.6
			c3.3-2.7,7.2-3,11.7-0.8c-1.3,0.2-2.7,0.7-4.2,1.4c-3,1.5-4.9,3.5-5.8,6.1c1.1,0,1.9-0.3,2.4-1l0.6,0.9l2.5-1.1
			c1.7-1,2.9-2.3,3.4-3.9l0.4,0.9c0.2,0.7,0.3,1.4,0.2,2.1c-0.3,2.3-2.2,4.3-5.7,5.9c-0.2,0.7-0.7,1.4-1.5,2.1
			c-1.6,1.4-3.7,2.1-6.5,2l-0.5,1.2c-0.3,1-0.4,1.9-0.2,2.9C35.3,42.3,37.6,44.4,41.8,45.6z M42.5,27.6l0.1,1.2
			c0.2,0.9,0.5,1.5,0.9,1.9 M47.5,39.8l1-1.3c0.8-0.5,1.3,0,1.5,1.6 M55.1,40.2l1.1-1.4c0.8-0.5,1.3,0,1.5,1.7 M64.7,30.1
			c-0.5,2.3-0.9,3.6-1.3,4 M90.1,50.7c0,11.1-3.9,20.6-11.8,28.4S61,90.8,50,90.8s-20.6-3.9-28.4-11.8S9.8,61.8,9.8,50.7
			s3.9-20.6,11.7-28.4S38.9,10.6,50,10.6s20.6,3.9,28.4,11.7S90.1,39.6,90.1,50.7z M41.6,59.6l8.5,1.5c6.1,0.8,10.3,0.6,12.8-0.5
			 M44.2,68.3l5.5,1.5c4.2,0.8,7.6,0.6,10.2-0.5 M45,74.8l3.6,1.2c2.7,0.8,4.7,1.2,5.9,1.1 M43.1,77.9l1.1,1.8c1.1,1.3,2.4,2,4,2.3
			 M42,49.1l6.1,1.3c5,0.6,9.9,0.4,14.6-0.7"/>
	</g>
</g>
</svg>
