<?xml version="1.0" encoding="utf-8"?>
<!-- Generator: Adobe Illustrator 21.1.0, SVG Export Plug-In . SVG Version: 6.00 Build 0)  -->
<svg version="1.1" id="Layer_1" xmlns="http://www.w3.org/2000/svg" xmlns:xlink="http://www.w3.org/1999/xlink" x="0px" y="0px"
	 viewBox="0 0 100 125" style="enable-background:new 0 0 100 125;" xml:space="preserve">
<style type="text/css">
	.st0{opacity:0.8;}
	.st1{fill:url(#SVGID_1_);}
	.st2{fill:none;stroke:#3ECCED;stroke-linecap:round;stroke-linejoin:round;}
</style>
<g transform="matrix( 1, 0, 0, 1, 0,0) " class="st0">
	<g>
		<g id="b">
			<linearGradient id="SVGID_1_" gradientUnits="userSpaceOnUse" x1="7.3" y1="50.4" x2="93.9" y2="50.4">
				<stop  offset="0" style="stop-color:#3FFFCC"/>
				<stop  offset="1" style="stop-color:#158CFF"/>
			</linearGradient>
			<path class="st1" d="M81.2,80.5c8.5-8.3,12.7-18.3,12.7-30s-4.2-21.8-12.7-30.1S62.5,7.9,50.6,7.9S28.5,12,20,20.3
				C11.6,28.7,7.3,38.7,7.3,50.5s4.2,21.8,12.6,30c8.5,8.3,18.7,12.4,30.6,12.4C62.5,92.9,72.7,88.8,81.2,80.5 M75.2,22.7
				c0.9,0.1,1.8,0.5,2.5,1.1c-1.1,0.7-1.4,2.1-0.8,4.1c0.3,1,0.8,2,1.3,2.9c0.9,1.4,1.4,3.1,1.3,5.1c0,1-0.2,1.8-0.4,2.5
				c-1.6,2.7-3.7,4.5-6.4,5.5l-3.6,0.7c2.6,0.6,4.8,2.1,6.6,4.5c0.9,1.2,1.6,2.3,1.9,3.4c-1.8,0.4-3.9-0.2-6.3-1.8l-3.2-2.6
				c-0.4,6.3-1.8,12.8-4.3,19.5c-1.3,3.4-2.5,6.1-3.7,8.2c-0.8,1.5-1.8,2.8-3,3.9c-0.6,0.5-1.2,0.9-1.7,1.1
				c-0.7,2.9-1.9,4.7-3.7,5.5c-0.9,0.4-1.8,0.6-2.6,0.4c-2.3-0.4-3.9-1.5-4.6-3.5l-0.5-3c-0.7-0.1-1.6-0.7-2.6-1.7l-1.2-1.7
				c-1.4-1.9-3.1-7.1-5.3-15.7L32,48.7c-1.7,2.1-3.7,3.4-5.9,3.8h-2.8c0.4-1.4,1.5-3,3.3-5l2.7-2.5c-5.3-3-7.8-6.5-7.6-10.5
				c0.1-1.2,0.4-2.5,1.1-3.6l0.9-1.4c2-1.8,2.6-3.4,1.8-5L23.6,23c4-0.6,6.4,0.4,7.1,2.8c0.4,1.2,0.4,2.5,0,3.9
				c-0.2,2.6,0.8,4.5,2.8,5.8c1,0.6,2.1,1,3.1,1.2c2.2-0.8,5.6-1.3,10.2-1.6c2.3-0.2,4.4-0.2,6.2-0.2c8,1.1,12.8,1.4,14.2,1.1
				l0.6-0.2c1.6-1.3,2.6-3.3,2.8-6v-3.6C71.8,23.6,73.3,22.5,75.2,22.7 M52.5,82.8L53,81l-6-0.2c-0.3,1.6,0.1,2.7,1.1,3.4
				c0.5,0.3,1,0.5,1.6,0.5C51,84.7,51.9,84,52.5,82.8z"/>
		</g>
	</g>
	<g>
		<path id="a" class="st2" d="M93.8,50.5c0,11.7-4.2,21.8-12.7,30c-8.4,8.3-18.6,12.4-30.6,12.4c-11.9,0-22.1-4.2-30.6-12.4
			c-8.4-8.3-12.6-18.3-12.6-30S11.6,28.7,20,20.4C28.5,12.1,38.7,7.9,50.6,8c11.9,0,22.1,4.1,30.6,12.4
			C89.6,28.7,93.8,38.7,93.8,50.5z M69.1,44.7l3.6-0.7c2.7-1,4.8-2.9,6.4-5.5c0.2-0.7,0.4-1.5,0.4-2.5c0.1-2-0.4-3.7-1.3-5.1
			c-0.5-0.9-1-1.8-1.3-2.9c-0.6-2-0.3-3.4,0.8-4.1c-0.7-0.6-1.6-1-2.5-1.1c-1.9-0.2-3.4,0.9-4.5,3.5v3.6c-0.3,2.7-1.2,4.7-2.8,6
			L67.2,36l1.9,1l-3.2,2l5.2-0.6l-3.5,4.1l3.8-0.4L69.1,44.7c2.6,0.6,4.8,2.1,6.6,4.5c0.9,1.2,1.6,2.3,1.9,3.4
			c-1.8,0.4-3.9-0.2-6.3-1.8l-3.2-2.6c-0.4,6.3-1.8,12.8-4.3,19.5c-1.3,3.4-2.5,6.1-3.7,8.2c-0.8,1.5-1.8,2.8-3,3.9
			c-0.6,0.5-1.2,0.9-1.7,1.1c-0.7,2.9-1.9,4.7-3.7,5.5c-0.9,0.4-1.8,0.6-2.6,0.4c-2.3-0.4-3.9-1.5-4.6-3.5l-0.5-3
			c-0.7-0.1-1.6-0.7-2.6-1.7l-1.2-1.7c-1.4-1.9-3.1-7.1-5.3-15.7L32,48.8c-1.7,2.1-3.7,3.4-5.9,3.8h-2.8c0.4-1.4,1.5-3,3.3-5
			l2.7-2.5c-5.3-3-7.8-6.5-7.6-10.5c0.1-1.2,0.4-2.5,1.1-3.6l0.9-1.4c2-1.8,2.6-3.4,1.8-5L23.6,23c4-0.6,6.4,0.4,7.1,2.8
			c0.4,1.2,0.4,2.5,0,3.9c-0.2,2.6,0.8,4.5,2.8,5.8c1,0.6,2.1,1,3.1,1.2c2.2-0.8,5.6-1.3,10.2-1.6c2.3-0.2,4.4-0.2,6.2-0.2
			c8,1.1,12.8,1.4,14.2,1.1 M29.6,45.2l1.4-0.4l-2.4-3l2.9,0.5L29.1,37l5,1.5l-1.8-1.6h2.1 M38.5,59.8l1.1,2.2
			c0.9,1,1.7,0.3,2.5-2.2 M58.2,59.9l0.6,1.6c0.6,0.7,1.5,0.2,2.5-1.5 M52.8,77.4L54,77c0.9-0.1,1.5,0.2,2,0.9 M55.1,80.3
			c-0.2-0.5-0.4-0.9-0.6-1.1c-0.5-0.5-1,0.1-1.5,1.6 M47,80.9l6,0.2l-0.5,1.8c-0.6,1.2-1.5,1.9-2.8,2c-0.6,0-1.1-0.2-1.6-0.5
			C47.1,83.6,46.7,82.5,47,80.9z M44.1,77.1l1-0.7c0.8-0.2,1.7,0.2,2.5,1.2 M44.1,79.8c0.3-0.7,0.7-1.1,1.1-1.4
			c0.8-0.6,1.4,0.1,1.8,2"/>
	</g>
</g>
</svg>
