<?xml version="1.0" encoding="utf-8"?>
<!-- Generator: Adobe Illustrator 21.1.0, SVG Export Plug-In . SVG Version: 6.00 Build 0)  -->
<svg version="1.1" id="Layer_1" opacity="0.8" xmlns="http://www.w3.org/2000/svg" xmlns:xlink="http://www.w3.org/1999/xlink"
	 x="0px" y="0px" viewBox="0 0 100 125" style="enable-background:new 0 0 100 125;" xml:space="preserve">
<style type="text/css">
	.st0{fill:url(#SVGID_1_);}
	.st1{fill:none;stroke:#3ECCED;stroke-linecap:round;stroke-linejoin:round;}
</style>
<g transform="matrix( 1, 0, 0, 1, 0,0) ">
	<g>
		<g id="b">
			<linearGradient id="SVGID_1_" gradientUnits="userSpaceOnUse" x1="7.4" y1="49.95" x2="92.8" y2="49.95">
				<stop  offset="0" style="stop-color:#3FFFCC"/>
				<stop  offset="1" style="stop-color:#158CFF"/>
			</linearGradient>
			<path class="st0" d="M80.2,19C71.9,10.6,61.9,6.3,50.1,6.3S28.3,10.6,20,19C11.6,27.6,7.4,37.9,7.4,50c0,12,4.2,22.3,12.6,30.8
				c8.3,8.5,18.4,12.8,30.1,12.8s21.8-4.3,30.2-12.8C88.6,72.3,92.8,62,92.8,50S88.6,27.6,80.2,19 M53.2,17.3c0-0.1,0-0.2,0-0.2
				l3.7,0.3c3,0.5,5.7,1.6,8,3.1c7.7,5,11.2,14.2,10.6,27.7v0.4c-0.7,5.2-2.3,10.3-5,15.4c-5.3,10.2-13,15.2-23,14.8
				c-7.7-1.8-13.4-3.7-17.2-5.5l-1.8,0.2c-1,0.5-1.2,1.5-0.4,3.2l1.5,0.3c1.1,0.1,1.8-0.2,2.2-0.8l-1.1,1.9c-1,1.3-2.3,1.9-3.9,1.9
				c-1.3-0.7-2.4-1.6-3.2-2.7c-1.7-2.3-1.4-4.5,0.9-6.8l1.9-1.5c2.2-1,5.6-1.4,10.2-1.3c0.8-0.3,1.5-0.7,2.1-1.2
				c1.2-1.1,1.2-2.3,0.1-3.7c-2.7-4.8-4.7-9.3-6-13.5c-1-3.2-1.2-5.6-0.8-7.3c0-2.8,0.8-6,2.5-9.5c3.5-7,9.7-12.1,18.7-15.4
				C53.2,17.1,53.2,17.3,53.2,17.3z"/>
		</g>
	</g>
	<g>
		<path id="a" class="st1" d="M53.2,17l3.7,0.3c3,0.5,5.7,1.6,8,3.1c7.7,5,11.2,14.2,10.6,27.7v0.4c-0.7,5.2-2.3,10.3-5,15.4
			c-5.3,10.2-13,15.2-23,14.8c-7.7-1.8-13.4-3.7-17.2-5.5l-1.8,0.2c-1,0.5-1.2,1.5-0.4,3.2l1.5,0.3c1.1,0.1,1.8-0.2,2.2-0.8L30.7,78
			c-1,1.3-2.3,1.9-3.9,1.9c-1.3-0.7-2.4-1.6-3.2-2.7c-1.7-2.3-1.4-4.5,0.9-6.8l1.9-1.5c2.2-1,5.6-1.4,10.2-1.3
			c0.8-0.3,1.5-0.7,2.1-1.2c1.2-1.1,1.2-2.3,0.1-3.7c-2.7-4.8-4.7-9.3-6-13.5c-1-3.2-1.2-5.6-0.8-7.3c0-2.8,0.8-6,2.5-9.5
			C38,25.4,44.2,20.3,53.2,17l0,0.1C53.2,17.2,53.2,17.1,53.2,17z M53.2,17.3l0.1,1.2l0.1,1.3l0.1,1.5l0.2,3.7
			c0.1,1.4,0.3,2.7,0.5,3.9c1.3,3.3,3.4,6.7,6.4,10.4c1.3,1.5,2.4,2.8,3.5,3.9l11.5,5 M32.8,49.3L43,43c2.7-1.9,5.3-4.8,7.9-8.8
			c1.3-2,2.3-3.8,3.1-5.4L53.7,25c0-0.3-0.1-0.5-0.1-0.8c-0.1-1.1-0.1-2-0.1-2.9 M53.3,19.8v-0.6c0-0.2,0-0.5,0-0.7 M45.7,45.3
			l0.9,1.6c0.8,0.7,1.5,0.1,2.4-1.7 M43,43l0.1,3.3c0.2,2.7,0.5,5.3,1,7.7c1.6,7.6,4.6,12.1,8.9,13.6c1.3,0.5,2.8-0.1,4.5-1.8
			c3.3-3.4,5.7-10.8,7.3-22.1c-0.2-0.2-0.4-0.4-0.6-0.6 M58.5,44.8l1,1.9c0.8,0.9,1.8,0.3,2.8-1.8 M64.6,32.2
			c-0.2-0.1-0.5-0.2-0.8-0.2s-0.5,0.2-0.8,0.4c-0.3,0.4-0.6,0.7-1,1l1,0.6c0.3,0.2,0.6,0.2,0.8,0.2s0.6-0.2,1.3-0.6L65,34.2
			c-0.1,0.6,0.1,1.3,0.4,2.1l0.7-0.3c0.5-0.4,0.9-0.9,1.3-1.5l0.4,0.7c0.4,0.5,1,0.9,1.8,1.2c-0.1-1.3-0.4-2.4-1-3.2l1.1,0.2
			c0.8,0,1.4-0.1,1.8-0.5c-1-1.2-1.9-1.7-2.6-1.5c0.6-0.4,0.9-1.2,1-2.6c-0.3-0.2-0.7-0.2-1.1-0.1c-0.8,0.1-1.5,0.7-2.1,1.9l0,0
			c0,0.1-0.1,0.2-0.1,0.2c0.1,0,0.3-0.1,0.4-0.1c0.5,0,0.8,0.1,1.2,0.5c0.3,0.3,0.5,0.7,0.5,1.2s-0.2,0.8-0.5,1.1S67.5,34,67,34
			s-0.9-0.2-1.2-0.5c-0.3-0.3-0.5-0.7-0.5-1.1c0-0.5,0.2-0.9,0.5-1.2c0.2-0.2,0.5-0.3,0.8-0.4 M66.7,30.3c0.1-0.2,0.1-0.3,0-0.5
			c-0.2-0.4-1-1-2.5-1.6l-0.5,1.5c-0.2,1.1,0.2,1.8,1.2,2.1 M92.8,50c0,12.1-4.2,22.4-12.5,30.9S61.9,93.7,50.1,93.7
			S28.3,89.3,20,80.8C11.6,72.3,7.4,62,7.4,50c0-12.1,4.2-22.4,12.6-31c8.3-8.5,18.4-12.7,30.1-12.7c11.8,0,21.8,4.2,30.2,12.7
			C88.6,27.6,92.8,37.9,92.8,50z M34.3,70.8l5.6,1.2c3.7-1,5.3-3.2,5-6.7c-0.1-1.1-0.5-2.2-1-3.4l-0.8-1.5
			c-2.5-4.1-4.1-7.6-4.7-10.6l-0.2-3.4 M52,56.8l1,1.2c0.8,0.5,1.6,0.1,2.3-1.3 M50.9,62.5l1.6,1c1.4,0.4,2.8,0.1,4.2-0.9 M40,72.1
			c4.4,1.8,9,2,13.8,0.7c9.5-2.5,15.1-11.4,16.7-26.5"/>
	</g>
</g>
</svg>
