<?xml version="1.0" encoding="utf-8"?>
<!-- Generator: Adobe Illustrator 21.1.0, SVG Export Plug-In . SVG Version: 6.00 Build 0)  -->
<svg version="1.1" id="Layer_1" xmlns="http://www.w3.org/2000/svg" xmlns:xlink="http://www.w3.org/1999/xlink" x="0px" y="0px"
	 viewBox="0 0 100 125" style="enable-background:new 0 0 100 125;" xml:space="preserve">
<style type="text/css">
	.st0{fill:none;stroke:#000000;stroke-linecap:round;stroke-linejoin:round;}
</style>
<g transform="matrix( 1, 0, 0, 1, 0,0) ">
	<g>
		<g id="b">
			<path d="M79.7,21.8c-8.1-8-18-12.1-29.5-12.1s-21.3,4-29.5,12.1S8.6,39.5,8.6,50.8s4.1,21.1,12.2,29.1S38.7,92,50.2,92
				s21.3-4,29.5-12.1s12.2-17.7,12.2-29.1S87.8,29.8,79.7,21.8 M35.5,47.3c0.2-0.5,0.7-0.7,1.4-0.5l1.7,2.8c1.2,2,2.3,3.3,3.1,3.9
				l1.4,0.7c1,0.2,1.7-0.3,2-1.4c-0.2-0.2-0.4-0.5-0.5-0.8c-0.3-0.5-0.1-0.8,0.4-1c-0.5,0.1-0.7,0.4-0.4,1c0.1,0.3,0.3,0.6,0.5,0.8
				c-0.3,1.1-1,1.6-2,1.4l-1.4-0.7c-0.8-0.6-1.9-1.9-3.1-3.9l-1.7-2.8C36.1,46.6,35.6,46.8,35.5,47.3c-0.1,0.2-0.1,0.5-0.1,0.8
				C35.3,47.8,35.4,47.5,35.5,47.3 M51.6,41.5L51.6,41.5c0.8,0.7,1.8,1.2,3.1,1.5c1,0.2,1.9,0.3,2.7,0.2c-0.9,1.7-3,4.1-6.1,7.2
				c-1.6,1.6-3,3-4.4,4.2c-0.2-1.6-1-3.2-2.3-4.7l-2-1.8l-9.2-3.4c-3.9-1.6-6.2-4-7.1-7.4c-0.3-1.1-0.4-2.2-0.3-3.2l0.1-1.4l0.5-1.1
				L25,30.4c0.4-1,1-2,1.7-3.1c1.5-2.1,3.1-3.4,4.8-3.8l1.5,1.4c0,0,0.1,0,0.1,0c1.4-0.5,2.8-0.6,4.3-0.5c0.8,0.1,1.4,0.2,1.9,0.4
				c3.1,1.3,5.9,4.2,8.3,8.7c1.2,2.3,2.2,4.4,2.8,6.4c0.1,0.2,0.2,0.4,0.4,0.6C51,40.8,51.3,41.2,51.6,41.5 M58.2,32.8l1.3,0.1
				c0.9,0.3,1.4,0.9,1.5,1.9l0.2,2c-0.1,1.5-0.6,2.8-1.6,3.8c0-1.1-0.8-2.7-2.4-4.8c-0.1-0.4-0.2-0.8-0.2-1.2
				C57.2,33.6,57.5,33,58.2,32.8 M68.5,48.8c-0.3-0.3-0.6-0.5-0.9-0.5l-0.5,0c-1.9,0.2-2.4,0.9-1.8,2c0.4,0.5,0.9,1,1.7,1.5L64.8,53
				c-1.5,0-2.8-0.6-3.8-1.8L60,49.2c-0.4-4.3,1.2-7,4.7-8.2c1.8-0.6,3.6-0.8,5.3-0.5c3.1,1.1,5.4,3.1,6.8,6c0.7,1.4,1,2.8,1.1,4
				c0.4,2.3-0.1,5-1.3,8.2c-0.6,1.6-1.3,2.9-2,4c0.1,2.1-0.1,4-0.4,5.6c-0.2,0.8-0.4,1.4-0.7,1.8c-2.2,5.2-5.5,6.9-10,5.1
				c-1.4-0.6-2.8-1.5-4.3-2.7L57.5,71c-1.8,4.8-4.8,7-9.2,6.7c-1.4-0.1-2.8-0.4-4.2-1l-1.8-0.8c-1.7,1.4-4.1,1.8-7,1.1l-3.8-1.4
				c-4.2-3.2-6.2-6.7-6-10.4c0.1-1.2,0.3-2.3,0.8-3.4l0.7-1.3c3.2-4.7,6.8-6.3,10.8-4.9c2,0.7,3.6,1.9,5,3.5
				c-4.1,1.7-5.7,3.5-4.8,5.3c0.5,0.9,1.3,1.6,2.5,2.2c1.4-2.9,3.1-4.5,5-4.8c0.9-0.1,1.7,0,2.4,0.5c-1.6,2.5-1.8,4-0.8,4.4
				c0.6,0.2,1.3,0.2,2.2-0.1c1.9-1.6,2.4-4.2,1.3-7.9l-2.1-5.1l4.2-3.9l1.8-2.4c1.2,2,3.1,4.4,5.7,7c1.3,1.3,2.4,2.4,3.4,3.3
				c0,0,0.1,0.1,0.1,0.1c0.5-1.1,1.5-1.8,3-1.9c0.8-0.1,1.5,0,2.1,0.2C69.5,52.3,69.3,49.9,68.5,48.8z"/>
		</g>
	</g>
	<g>
		<path id="a" class="st0" d="M59.8,40.6c0-1.1-0.8-2.7-2.4-4.8c-0.1-0.4-0.2-0.8-0.2-1.2c0-0.9,0.4-1.5,1.1-1.8l1.3,0.1
			c0.9,0.3,1.4,0.9,1.5,1.9l0.2,2C61.3,38.3,60.8,39.6,59.8,40.6z M50.7,40.5l-1-1.1l-7.9,7.9l2.8,1.8l7-7.6
			C51.3,41.2,51,40.8,50.7,40.5c-0.1-0.2-0.3-0.4-0.4-0.6c-0.6-2-1.5-4.1-2.8-6.4c-2.5-4.5-5.2-7.4-8.3-8.7
			c-0.5-0.2-1.1-0.3-1.9-0.4c-1.5-0.2-2.9,0-4.3,0.5c0,0-0.1,0-0.1,0c-0.9,0.4-1.8,0.9-2.8,1.6c-0.3,0.3-0.7,0.5-1,0.8
			c-1.1,1.1-2,2.5-2.7,4.2L26,32.6L25.9,34c-0.1,1.1,0,2.2,0.3,3.2c0.9,3.4,3.2,5.8,7.1,7.4l9.2,3.4l2,1.8c1.4,1.5,2.1,3.1,2.3,4.7
			c1.4-1.2,2.8-2.6,4.4-4.2c3.1-3.1,5.2-5.5,6.1-7.2c-0.8,0.1-1.7,0-2.7-0.2c-1.2-0.3-2.2-0.7-3-1.4l0,0 M74.6,62.8
			c0.7-1.1,1.4-2.5,2-4c1.2-3.2,1.7-5.9,1.3-8.2c-0.1-1.2-0.4-2.6-1.1-4c-1.4-2.9-3.6-4.9-6.8-6c-1.8-0.3-3.6-0.1-5.3,0.5
			c-3.5,1.2-5,3.9-4.7,8.2l1.1,1.9c1,1.2,2.2,1.8,3.8,1.8l2.2-1.2c-0.7-0.5-1.3-1-1.7-1.5c-0.7-1.1-0.1-1.8,1.8-2l0.5,0
			c0.4,0,0.7,0.2,0.9,0.5c0.8,1.1,1,3.5,0.3,7.2l2.6,1.5c1,0.9,1.8,1.8,2.4,2.8C74.4,61.2,74.7,62.1,74.6,62.8
			c0.1,2.1-0.1,4-0.4,5.6c-0.2,0.8-0.4,1.4-0.7,1.8c-2.2,5.2-5.5,6.9-10,5.1c-1.4-0.6-2.8-1.5-4.3-2.7L57.5,71
			c-1.8,4.8-4.8,7-9.2,6.7c-1.4-0.1-2.8-0.4-4.2-1l-1.8-0.8c-1.7,1.4-4.1,1.8-7,1.1l-3.8-1.4c-4.2-3.2-6.2-6.7-6-10.4
			c0.1-1.2,0.3-2.3,0.8-3.4l0.7-1.3c3.2-4.7,6.8-6.3,10.8-4.9c2,0.7,3.6,1.9,5,3.5c-4.1,1.7-5.7,3.5-4.8,5.3
			c0.5,0.9,1.3,1.6,2.5,2.2c1.4-2.9,3.1-4.5,5-4.8c0.9-0.1,1.7,0,2.4,0.5c-1.6,2.5-1.8,4-0.8,4.4c0.6,0.2,1.3,0.2,2.2-0.1
			c1.9-1.6,2.4-4.2,1.3-7.9l-2.1-5.1l4.2-3.9l1.8-2.4c1.2,2,3.1,4.4,5.7,7c1.3,1.3,2.4,2.4,3.4,3.3c0,0,0,0,0.1,0.1
			c0.5-1.1,1.5-1.8,3-1.9c0.8-0.1,1.5,0,2.1,0.2 M91.8,50.8c0,11.4-4.1,21.1-12.2,29.1S61.7,92,50.2,92s-21.3-4-29.5-12.1
			S8.6,62.2,8.6,50.8s4.1-21.1,12.2-29.1s18-12.1,29.5-12.1s21.3,4,29.5,12.1S91.8,39.5,91.8,50.8z M26.5,31.5L25,30.4
			c0.4-1,1-2,1.7-3.1c1.5-2.1,3.1-3.4,4.8-3.8l1.5,1.4c-1.4,0.5-2.7,1.3-3.8,2.4C27.8,28.5,26.9,29.9,26.5,31.5z M35.3,48.1
			c0-0.3,0-0.6,0.1-0.8c0.2-0.5,0.7-0.7,1.4-0.5l1.7,2.8c1.2,2,2.3,3.3,3.1,3.9l1.4,0.7c1,0.2,1.7-0.3,2-1.4
			c-0.2-0.2-0.4-0.5-0.5-0.8c-0.3-0.5-0.1-0.8,0.4-1 M40.3,66.8L39.9,70c0,2.4,0.8,4.3,2.4,5.8 M63.7,57.7l-0.6,1.7l2.5-0.6
			c1.4,0,1.6,1,0.5,3c-0.4,0.4-1,0.6-1.6,0.7c-1.3,0.1-2.4-0.6-3.4-2.1c-4.1-5.8-6.8-9.3-8.3-10.7 M57.3,70.6
			c0.4-1.4,0.4-3.3,0.1-5.6c-0.7-4.6-2.7-9-6.2-13.2"/>
	</g>
</g>
</svg>
